<?xml version="1.0" encoding="iso-8859-1"?>
<!-- Uploaded to: SVG Repo, www.svgrepo.com, Generator: SVG Repo Mixer Tools -->
<svg fill="#000000" height="800px" width="800px" version="1.1" id="Layer_1" xmlns="http://www.w3.org/2000/svg" xmlns:xlink="http://www.w3.org/1999/xlink" 
	 viewBox="0 0 512 512" xml:space="preserve">
<g>
	<g>
		<path d="M448.585,133.309v-37.68h-20.327l-33.993-59.487l-33.993,59.487h-20.326v24.69h-39.504v-9.876h-88.885v9.876h-39.504
			v-24.69h-20.326l-33.993-59.487L83.741,95.628H63.415v37.68L0,386.973h43.663v88.885h148.142v-4.938
			c0-35.397,28.798-64.195,64.195-64.195c35.397,0,64.195,28.798,64.195,64.195v4.938h148.142v-88.885H512L448.585,133.309z
			 M241.185,140.071h29.628v39.504h-29.628V140.071z M172.053,149.947h39.504v29.628h-39.504V149.947z M117.734,95.858l13.978,24.46
			h-27.954L117.734,95.858z M93.044,149.947h49.381v59.257H93.044V149.947z M93.044,238.832h49.381v118.513H93.044V238.832z
			 M63.416,357.345H37.947L63.416,255.47V357.345z M162.177,446.23H73.292v-59.257h88.885V446.23z M191.805,402.564v-15.59h22.329
			C205.937,391.078,198.422,396.347,191.805,402.564z M320.194,402.564c-6.616-6.217-14.132-11.486-22.329-15.59h22.329V402.564z
			 M339.946,357.345H172.053V209.204h167.894V357.345z M339.946,179.575h-39.504v-29.628h39.504V179.575z M394.265,95.858
			l13.978,24.46h-27.954L394.265,95.858z M369.575,149.947h49.38v59.257h-49.38V149.947z M369.575,238.832h49.38v118.513h-49.38
			V238.832z M438.707,446.23h-88.885v-59.257h88.885V446.23z M448.584,357.345V255.47l25.47,101.875H448.584z"/>
	</g>
</g>
</svg>