<?xml version="1.0" encoding="iso-8859-1"?>
<!-- Uploaded to: SVG Repo, www.svgrepo.com, Generator: SVG Repo Mixer Tools -->
<!DOCTYPE svg PUBLIC "-//W3C//DTD SVG 1.1//EN" "http://www.w3.org/Graphics/SVG/1.1/DTD/svg11.dtd">
<svg fill="#000000" version="1.1" id="Capa_1" xmlns="http://www.w3.org/2000/svg" xmlns:xlink="http://www.w3.org/1999/xlink" 
	 width="800px" height="800px" viewBox="0 0 959.639 959.639"
	 xml:space="preserve">
<g>
	<g>
		<path d="M424.417,321.836v5.81c15.002-12.594,34.327-20.197,55.402-20.197c21.074,0,40.399,7.603,55.402,20.197v-5.81
			c0-10.417-2.879-20.159-7.878-28.483c-0.036-0.061-0.07-0.123-0.107-0.183l0.044-0.04c0,0-0.058-0.054-0.169-0.163
			c-2.125-3.473-4.629-6.686-7.442-9.599c-5.401-8.27-12.822-22.346-19.362-44.334c-5.535-18.608-8.583-37.866-9.378-57.263
			L483.793,7.784c-0.567-10.378-7.376-10.378-7.943,0l-7.136,173.988c-0.796,19.397-3.843,38.656-9.378,57.263
			c-6.541,21.988-13.961,36.064-19.362,44.334c-2.813,2.913-5.317,6.126-7.442,9.599c-0.111,0.109-0.169,0.163-0.169,0.163
			l0.044,0.04c-0.037,0.06-0.071,0.123-0.106,0.183C427.296,301.678,424.417,311.42,424.417,321.836z"/>
		<path d="M408.517,393.752v12.364c4.746-5.345,10.078-10.156,15.9-14.327c15.626-11.193,34.758-17.79,55.402-17.79
			s39.776,6.597,55.402,17.79c5.822,4.171,11.155,8.982,15.9,14.327v-12.364c0-17.007-5.964-32.615-15.9-44.87
			c-13.073-16.121-33.029-26.432-55.402-26.432c-22.372,0-42.329,10.312-55.402,26.432
			C414.48,361.137,408.517,376.746,408.517,393.752z"/>
		<path d="M401.017,453.607c-1.013,5.093-1.554,10.356-1.554,15.747v43.626v31.314h18.79V512.98v-6.756
			c0-0.248,0.017-0.494,0.02-0.744c0.03-2.539,0.219-5.041,0.549-7.5c4.043-30.061,29.847-53.322,60.997-53.322
			s56.955,23.261,60.997,53.322c0.331,2.459,0.519,4.961,0.549,7.5c0.003,0.25,0.02,0.494,0.02,0.744v6.756v31.314h18.789V512.98
			v-43.626c0-5.392-0.541-10.654-1.553-15.748c-1.497-7.533-4.057-14.68-7.5-21.294c-6.181-11.873-15.223-22.017-26.233-29.49
			c-12.854-8.724-28.364-13.824-45.068-13.824s-32.216,5.101-45.068,13.824c-11.011,7.474-20.053,17.617-26.233,29.49
			C405.073,438.927,402.514,446.074,401.017,453.607z"/>
		<path d="M392.712,563.709v2.852v263.432h-3.096c-1.649,0-3.17,0.543-4.404,1.451c-1.845,1.355-3.048,3.535-3.048,6.002v23.918
			h-4.452h-6.593c-4.116,0-7.453,3.338-7.453,7.453v83.369c0,4.115,3.337,7.453,7.453,7.453h217.4c4.116,0,7.453-3.338,7.453-7.453
			v-83.369c0-4.115-3.337-7.453-7.453-7.453h-6.626h-4.452v-23.918c0-2.467-1.203-4.646-3.048-6.002
			c-1.235-0.908-2.754-1.451-4.404-1.451h-3.096V566.561v-2.85c0-2.402-1.923-4.365-4.326-4.414h-36.183v-0.236v-7.5v-38.578v-6.756
			c0-0.248-0.016-0.494-0.02-0.744c-0.04-2.557-0.287-5.061-0.724-7.5c-3.895-21.783-22.921-38.322-45.823-38.322
			s-41.929,16.539-45.823,38.322c-0.436,2.439-0.683,4.943-0.724,7.5c-0.004,0.248-0.02,0.494-0.02,0.744v6.756v38.578v7.5v0.236
			h-36.216C394.636,559.344,392.712,561.307,392.712,563.709z M518.878,589.104c0-2.059,1.668-3.727,3.727-3.727h15.743
			c2.058,0,3.726,1.668,3.726,3.727v15.857c0,2.059-1.668,3.727-3.726,3.727h-15.743c-2.059,0-3.727-1.668-3.727-3.727V589.104z
			 M518.878,640.527c0-2.059,1.668-3.727,3.727-3.727h15.743c2.058,0,3.726,1.668,3.726,3.727v15.857
			c0,2.059-1.668,3.727-3.726,3.727h-15.743c-2.059,0-3.727-1.668-3.727-3.727V640.527z M518.878,691.176
			c0-2.059,1.668-3.727,3.727-3.727h15.743c2.058,0,3.726,1.668,3.726,3.727v15.852c0,2.059-1.668,3.727-3.726,3.727h-15.743
			c-2.059,0-3.727-1.668-3.727-3.727V691.176z M518.878,741.838c0-2.059,1.668-3.727,3.727-3.727h15.743
			c2.058,0,3.726,1.668,3.726,3.727v15.852c0,2.059-1.668,3.727-3.726,3.727h-15.743c-2.059,0-3.727-1.668-3.727-3.727V741.838z
			 M518.878,792.492c0-2.057,1.668-3.727,3.727-3.727h15.743c2.058,0,3.726,1.67,3.726,3.727v15.846
			c0,2.059-1.668,3.727-3.726,3.727h-15.743c-2.059,0-3.727-1.668-3.727-3.727V792.492z M468.219,593.662L468.219,593.662v-27.102
			v-7.5v-7.5v-38.578v-7.5v-2.08c0-1.963,0.518-3.811,1.425-5.42c1.976-3.504,5.806-5.881,10.209-5.881
			c4.402,0,8.232,2.377,10.209,5.881c0.908,1.609,1.425,3.457,1.425,5.42v2.08v7.5v38.578v7.5v7.5v27.102
			c0,0.461-0.037,0.914-0.092,1.361v9.939c0,2.059-1.668,3.727-3.727,3.727h-15.724c-2.059,0-3.727-1.668-3.727-3.727
			L468.219,593.662L468.219,593.662z M468.219,640.527c0-2.059,1.668-3.727,3.726-3.727h15.724c2.059,0,3.727,1.668,3.727,3.727
			v15.857c0,2.059-1.668,3.727-3.727,3.727h-15.724c-2.058,0-3.726-1.668-3.726-3.727V640.527z M468.219,691.176
			c0-2.059,1.668-3.727,3.726-3.727h15.724c2.059,0,3.727,1.668,3.727,3.727v15.852c0,2.059-1.668,3.727-3.727,3.727h-15.724
			c-2.058,0-3.726-1.668-3.726-3.727V691.176z M468.219,741.838c0-2.059,1.668-3.727,3.726-3.727h15.724
			c2.059,0,3.727,1.668,3.727,3.727v15.852c0,2.059-1.668,3.727-3.727,3.727h-15.724c-2.058,0-3.726-1.668-3.726-3.727V741.838z
			 M468.219,792.492c0-2.057,1.668-3.727,3.726-3.727h15.724c2.059,0,3.727,1.67,3.727,3.727v15.846
			c0,2.059-1.668,3.727-3.727,3.727h-15.724c-2.058,0-3.726-1.668-3.726-3.727V792.492z M417.531,589.104
			c0-2.059,1.668-3.727,3.727-3.727H437c2.059,0,3.727,1.668,3.727,3.727v15.857c0,2.059-1.668,3.727-3.727,3.727h-15.742
			c-2.059,0-3.727-1.668-3.727-3.727V589.104z M417.531,640.527c0-2.059,1.668-3.727,3.727-3.727H437
			c2.059,0,3.727,1.668,3.727,3.727v15.857c0,2.059-1.668,3.727-3.727,3.727h-15.742c-2.059,0-3.727-1.668-3.727-3.727V640.527z
			 M417.531,691.176c0-2.059,1.668-3.727,3.727-3.727H437c2.059,0,3.727,1.668,3.727,3.727v15.852c0,2.059-1.668,3.727-3.727,3.727
			h-15.742c-2.059,0-3.727-1.668-3.727-3.727V691.176z M417.531,741.838c0-2.059,1.668-3.727,3.727-3.727H437
			c2.059,0,3.727,1.668,3.727,3.727v15.852c0,2.059-1.668,3.727-3.727,3.727h-15.742c-2.059,0-3.727-1.668-3.727-3.727V741.838z
			 M417.531,792.492c0-2.057,1.668-3.727,3.727-3.727H437c2.059,0,3.727,1.67,3.727,3.727v15.846c0,2.059-1.668,3.727-3.727,3.727
			h-15.742c-2.059,0-3.727-1.668-3.727-3.727V792.492z"/>
	</g>
</g>
</svg>